<mxfile host="app.diagrams.net" modified="2021-11-12T20:09:42.211Z" agent="5.0 (Windows NT 10.0; Win64; x64) AppleWebKit/537.36 (KHTML, like Gecko) Chrome/95.0.4638.69 Safari/537.36" etag="d4oKCuilqGov9Qdx-G80" version="15.7.3" type="github">
  <diagram id="C5RBs43oDa-KdzZeNtuy" name="Page-1">
    <mxGraphModel dx="1038" dy="547" grid="1" gridSize="10" guides="1" tooltips="1" connect="1" arrows="1" fold="1" page="1" pageScale="1" pageWidth="827" pageHeight="1169" math="0" shadow="0">
      <root>
        <mxCell id="WIyWlLk6GJQsqaUBKTNV-0" />
        <mxCell id="WIyWlLk6GJQsqaUBKTNV-1" parent="WIyWlLk6GJQsqaUBKTNV-0" />
        <mxCell id="WIyWlLk6GJQsqaUBKTNV-2" value="" style="rounded=0;html=1;jettySize=auto;orthogonalLoop=1;fontSize=11;endArrow=block;endFill=0;endSize=8;strokeWidth=1;shadow=0;labelBackgroundColor=none;edgeStyle=orthogonalEdgeStyle;" parent="WIyWlLk6GJQsqaUBKTNV-1" source="WIyWlLk6GJQsqaUBKTNV-3" target="WIyWlLk6GJQsqaUBKTNV-6" edge="1">
          <mxGeometry relative="1" as="geometry" />
        </mxCell>
        <mxCell id="WIyWlLk6GJQsqaUBKTNV-3" value="URL=MyVMs" style="rounded=1;whiteSpace=wrap;html=1;fontSize=12;glass=0;strokeWidth=1;shadow=0;" parent="WIyWlLk6GJQsqaUBKTNV-1" vertex="1">
          <mxGeometry x="57" y="170" width="120" height="40" as="geometry" />
        </mxCell>
        <mxCell id="WIyWlLk6GJQsqaUBKTNV-6" value="Is there &lt;br&gt;&lt;b&gt;prolong &lt;/b&gt;button:" style="rhombus;whiteSpace=wrap;html=1;shadow=0;fontFamily=Helvetica;fontSize=12;align=center;strokeWidth=1;spacing=6;spacingTop=-4;" parent="WIyWlLk6GJQsqaUBKTNV-1" vertex="1">
          <mxGeometry x="62" y="255" width="110" height="90" as="geometry" />
        </mxCell>
        <mxCell id="WIyWlLk6GJQsqaUBKTNV-7" value="&lt;div&gt;error=There is no VM that can be prolonged on the page.&lt;/div&gt;&lt;div&gt;&lt;br&gt;&lt;/div&gt;" style="rounded=1;whiteSpace=wrap;html=1;fontSize=12;glass=0;strokeWidth=1;shadow=0;" parent="WIyWlLk6GJQsqaUBKTNV-1" vertex="1">
          <mxGeometry x="216" y="260" width="190" height="80" as="geometry" />
        </mxCell>
        <mxCell id="WIyWlLk6GJQsqaUBKTNV-10" value="Click &lt;b&gt;prolong&lt;/b&gt;&lt;br&gt;button" style="rhombus;whiteSpace=wrap;html=1;shadow=0;fontFamily=Helvetica;fontSize=12;align=center;strokeWidth=1;spacing=6;spacingTop=-4;" parent="WIyWlLk6GJQsqaUBKTNV-1" vertex="1">
          <mxGeometry x="62" y="385" width="110" height="90" as="geometry" />
        </mxCell>
        <mxCell id="WIyWlLk6GJQsqaUBKTNV-11" value="Test Passed" style="rounded=1;whiteSpace=wrap;html=1;fontSize=12;glass=0;strokeWidth=1;shadow=0;" parent="WIyWlLk6GJQsqaUBKTNV-1" vertex="1">
          <mxGeometry x="58" y="520" width="120" height="40" as="geometry" />
        </mxCell>
        <mxCell id="WIyWlLk6GJQsqaUBKTNV-12" value="Test Failed" style="rounded=1;whiteSpace=wrap;html=1;fontSize=12;glass=0;strokeWidth=1;shadow=0;" parent="WIyWlLk6GJQsqaUBKTNV-1" vertex="1">
          <mxGeometry x="227" y="410" width="120" height="40" as="geometry" />
        </mxCell>
        <mxCell id="qnX8hXvUprhNILmY2zkn-8" value="" style="endArrow=classic;html=1;rounded=0;exitX=1;exitY=0.5;exitDx=0;exitDy=0;" parent="WIyWlLk6GJQsqaUBKTNV-1" source="WIyWlLk6GJQsqaUBKTNV-6" target="WIyWlLk6GJQsqaUBKTNV-7" edge="1">
          <mxGeometry width="50" height="50" relative="1" as="geometry">
            <mxPoint x="287" y="540" as="sourcePoint" />
            <mxPoint x="337" y="490" as="targetPoint" />
          </mxGeometry>
        </mxCell>
        <mxCell id="qnX8hXvUprhNILmY2zkn-9" value="" style="endArrow=classic;html=1;rounded=0;exitX=0.5;exitY=1;exitDx=0;exitDy=0;" parent="WIyWlLk6GJQsqaUBKTNV-1" source="WIyWlLk6GJQsqaUBKTNV-6" target="WIyWlLk6GJQsqaUBKTNV-10" edge="1">
          <mxGeometry width="50" height="50" relative="1" as="geometry">
            <mxPoint x="287" y="540" as="sourcePoint" />
            <mxPoint x="337" y="490" as="targetPoint" />
          </mxGeometry>
        </mxCell>
        <mxCell id="qnX8hXvUprhNILmY2zkn-10" value="" style="endArrow=classic;html=1;rounded=0;exitX=1;exitY=0.5;exitDx=0;exitDy=0;entryX=0;entryY=0.5;entryDx=0;entryDy=0;" parent="WIyWlLk6GJQsqaUBKTNV-1" source="WIyWlLk6GJQsqaUBKTNV-10" target="WIyWlLk6GJQsqaUBKTNV-12" edge="1">
          <mxGeometry width="50" height="50" relative="1" as="geometry">
            <mxPoint x="287" y="540" as="sourcePoint" />
            <mxPoint x="337" y="490" as="targetPoint" />
          </mxGeometry>
        </mxCell>
        <mxCell id="qnX8hXvUprhNILmY2zkn-11" value="" style="endArrow=classic;html=1;rounded=0;exitX=0.5;exitY=1;exitDx=0;exitDy=0;entryX=0.5;entryY=0;entryDx=0;entryDy=0;" parent="WIyWlLk6GJQsqaUBKTNV-1" source="WIyWlLk6GJQsqaUBKTNV-10" edge="1">
          <mxGeometry width="50" height="50" relative="1" as="geometry">
            <mxPoint x="287" y="540" as="sourcePoint" />
            <mxPoint x="117" y="520" as="targetPoint" />
          </mxGeometry>
        </mxCell>
        <mxCell id="qnX8hXvUprhNILmY2zkn-12" value="True" style="text;html=1;strokeColor=none;fillColor=none;align=center;verticalAlign=middle;whiteSpace=wrap;rounded=0;" parent="WIyWlLk6GJQsqaUBKTNV-1" vertex="1">
          <mxGeometry x="107" y="480" width="60" height="30" as="geometry" />
        </mxCell>
        <mxCell id="qnX8hXvUprhNILmY2zkn-13" value="False" style="text;html=1;strokeColor=none;fillColor=none;align=center;verticalAlign=middle;whiteSpace=wrap;rounded=0;" parent="WIyWlLk6GJQsqaUBKTNV-1" vertex="1">
          <mxGeometry x="167" y="400" width="60" height="30" as="geometry" />
        </mxCell>
        <mxCell id="qnX8hXvUprhNILmY2zkn-14" value="" style="rounded=0;html=1;jettySize=auto;orthogonalLoop=1;fontSize=11;endArrow=block;endFill=0;endSize=8;strokeWidth=1;shadow=0;labelBackgroundColor=none;edgeStyle=orthogonalEdgeStyle;" parent="WIyWlLk6GJQsqaUBKTNV-1" source="qnX8hXvUprhNILmY2zkn-15" target="qnX8hXvUprhNILmY2zkn-16" edge="1">
          <mxGeometry relative="1" as="geometry" />
        </mxCell>
        <mxCell id="qnX8hXvUprhNILmY2zkn-15" value="URL=MyVMs" style="rounded=1;whiteSpace=wrap;html=1;fontSize=12;glass=0;strokeWidth=1;shadow=0;" parent="WIyWlLk6GJQsqaUBKTNV-1" vertex="1">
          <mxGeometry x="475.25" y="170" width="120" height="40" as="geometry" />
        </mxCell>
        <mxCell id="qnX8hXvUprhNILmY2zkn-16" value="Page should &lt;br&gt;contain VM cards" style="rhombus;whiteSpace=wrap;html=1;shadow=0;fontFamily=Helvetica;fontSize=12;align=center;strokeWidth=1;spacing=6;spacingTop=-4;" parent="WIyWlLk6GJQsqaUBKTNV-1" vertex="1">
          <mxGeometry x="469" y="255" width="132.5" height="97.5" as="geometry" />
        </mxCell>
        <mxCell id="qnX8hXvUprhNILmY2zkn-19" value="Test Passed" style="rounded=1;whiteSpace=wrap;html=1;fontSize=12;glass=0;strokeWidth=1;shadow=0;" parent="WIyWlLk6GJQsqaUBKTNV-1" vertex="1">
          <mxGeometry x="475.25" y="660" width="120" height="40" as="geometry" />
        </mxCell>
        <mxCell id="qnX8hXvUprhNILmY2zkn-21" value="" style="endArrow=classic;html=1;rounded=0;exitX=1;exitY=0.5;exitDx=0;exitDy=0;" parent="WIyWlLk6GJQsqaUBKTNV-1" source="qnX8hXvUprhNILmY2zkn-16" edge="1">
          <mxGeometry width="50" height="50" relative="1" as="geometry">
            <mxPoint x="705.25" y="540" as="sourcePoint" />
            <mxPoint x="634.25" y="302.78864970645805" as="targetPoint" />
          </mxGeometry>
        </mxCell>
        <mxCell id="qnX8hXvUprhNILmY2zkn-22" value="" style="endArrow=classic;html=1;rounded=0;exitX=0.5;exitY=1;exitDx=0;exitDy=0;" parent="WIyWlLk6GJQsqaUBKTNV-1" source="qnX8hXvUprhNILmY2zkn-16" edge="1">
          <mxGeometry width="50" height="50" relative="1" as="geometry">
            <mxPoint x="705.25" y="540" as="sourcePoint" />
            <mxPoint x="535.6236995104039" y="383.1433598531212" as="targetPoint" />
          </mxGeometry>
        </mxCell>
        <mxCell id="qnX8hXvUprhNILmY2zkn-25" value="True" style="text;html=1;strokeColor=none;fillColor=none;align=center;verticalAlign=middle;whiteSpace=wrap;rounded=0;" parent="WIyWlLk6GJQsqaUBKTNV-1" vertex="1">
          <mxGeometry x="525.25" y="630" width="60" height="30" as="geometry" />
        </mxCell>
        <mxCell id="qnX8hXvUprhNILmY2zkn-27" value="True" style="text;html=1;strokeColor=none;fillColor=none;align=center;verticalAlign=middle;whiteSpace=wrap;rounded=0;" parent="WIyWlLk6GJQsqaUBKTNV-1" vertex="1">
          <mxGeometry x="107" y="340" width="60" height="30" as="geometry" />
        </mxCell>
        <mxCell id="qnX8hXvUprhNILmY2zkn-28" value="False" style="text;html=1;strokeColor=none;fillColor=none;align=center;verticalAlign=middle;whiteSpace=wrap;rounded=0;" parent="WIyWlLk6GJQsqaUBKTNV-1" vertex="1">
          <mxGeometry x="156" y="270" width="60" height="30" as="geometry" />
        </mxCell>
        <mxCell id="qnX8hXvUprhNILmY2zkn-29" value="False" style="text;html=1;strokeColor=none;fillColor=none;align=center;verticalAlign=middle;whiteSpace=wrap;rounded=0;" parent="WIyWlLk6GJQsqaUBKTNV-1" vertex="1">
          <mxGeometry x="585.25" y="270" width="60" height="30" as="geometry" />
        </mxCell>
        <mxCell id="qnX8hXvUprhNILmY2zkn-30" value="Test Failed" style="rounded=1;whiteSpace=wrap;html=1;fontSize=12;glass=0;strokeWidth=1;shadow=0;" parent="WIyWlLk6GJQsqaUBKTNV-1" vertex="1">
          <mxGeometry x="635.25" y="283.75" width="120" height="40" as="geometry" />
        </mxCell>
        <mxCell id="qnX8hXvUprhNILmY2zkn-31" value="True" style="text;html=1;strokeColor=none;fillColor=none;align=center;verticalAlign=middle;whiteSpace=wrap;rounded=0;" parent="WIyWlLk6GJQsqaUBKTNV-1" vertex="1">
          <mxGeometry x="525.25" y="352.5" width="60" height="30" as="geometry" />
        </mxCell>
        <mxCell id="qnX8hXvUprhNILmY2zkn-32" value="return count of cards into &lt;b&gt;card-count&lt;/b&gt; variable" style="rounded=1;whiteSpace=wrap;html=1;" parent="WIyWlLk6GJQsqaUBKTNV-1" vertex="1">
          <mxGeometry x="475.25" y="382.5" width="120" height="60" as="geometry" />
        </mxCell>
        <mxCell id="qnX8hXvUprhNILmY2zkn-33" value="" style="endArrow=classic;html=1;rounded=0;exitX=0.5;exitY=1;exitDx=0;exitDy=0;" parent="WIyWlLk6GJQsqaUBKTNV-1" source="qnX8hXvUprhNILmY2zkn-32" edge="1">
          <mxGeometry width="50" height="50" relative="1" as="geometry">
            <mxPoint x="445.25" y="310" as="sourcePoint" />
            <mxPoint x="535.25" y="490" as="targetPoint" />
          </mxGeometry>
        </mxCell>
        <mxCell id="qnX8hXvUprhNILmY2zkn-34" value="VM counter (GUI) should contain &lt;b&gt;card-count&lt;/b&gt;" style="rhombus;whiteSpace=wrap;html=1;shadow=0;fontFamily=Helvetica;fontSize=12;align=center;strokeWidth=1;spacing=6;spacingTop=-4;" parent="WIyWlLk6GJQsqaUBKTNV-1" vertex="1">
          <mxGeometry x="447" y="491.25" width="176.5" height="138.75" as="geometry" />
        </mxCell>
        <mxCell id="qnX8hXvUprhNILmY2zkn-35" value="" style="endArrow=classic;html=1;rounded=0;exitX=1;exitY=0.5;exitDx=0;exitDy=0;" parent="WIyWlLk6GJQsqaUBKTNV-1" edge="1">
          <mxGeometry width="50" height="50" relative="1" as="geometry">
            <mxPoint x="623.5" y="560.63" as="sourcePoint" />
            <mxPoint x="656.25" y="559.668649706458" as="targetPoint" />
          </mxGeometry>
        </mxCell>
        <mxCell id="qnX8hXvUprhNILmY2zkn-36" value="Test Failed" style="rounded=1;whiteSpace=wrap;html=1;fontSize=12;glass=0;strokeWidth=1;shadow=0;" parent="WIyWlLk6GJQsqaUBKTNV-1" vertex="1">
          <mxGeometry x="657.25" y="540.63" width="120" height="40" as="geometry" />
        </mxCell>
        <mxCell id="qnX8hXvUprhNILmY2zkn-37" value="False" style="text;html=1;strokeColor=none;fillColor=none;align=center;verticalAlign=middle;whiteSpace=wrap;rounded=0;" parent="WIyWlLk6GJQsqaUBKTNV-1" vertex="1">
          <mxGeometry x="601.5" y="520" width="60" height="30" as="geometry" />
        </mxCell>
        <mxCell id="qnX8hXvUprhNILmY2zkn-38" value="" style="endArrow=classic;html=1;rounded=0;exitX=0.5;exitY=1;exitDx=0;exitDy=0;entryX=0.5;entryY=0;entryDx=0;entryDy=0;" parent="WIyWlLk6GJQsqaUBKTNV-1" source="qnX8hXvUprhNILmY2zkn-34" target="qnX8hXvUprhNILmY2zkn-19" edge="1">
          <mxGeometry width="50" height="50" relative="1" as="geometry">
            <mxPoint x="445.25" y="500" as="sourcePoint" />
            <mxPoint x="495.25" y="450" as="targetPoint" />
          </mxGeometry>
        </mxCell>
        <mxCell id="qnX8hXvUprhNILmY2zkn-39" value="" style="rounded=0;html=1;jettySize=auto;orthogonalLoop=1;fontSize=11;endArrow=block;endFill=0;endSize=8;strokeWidth=1;shadow=0;labelBackgroundColor=none;edgeStyle=orthogonalEdgeStyle;" parent="WIyWlLk6GJQsqaUBKTNV-1" source="qnX8hXvUprhNILmY2zkn-40" target="qnX8hXvUprhNILmY2zkn-41" edge="1">
          <mxGeometry relative="1" as="geometry" />
        </mxCell>
        <mxCell id="qnX8hXvUprhNILmY2zkn-40" value="URL=MyVMs" style="rounded=1;whiteSpace=wrap;html=1;fontSize=12;glass=0;strokeWidth=1;shadow=0;" parent="WIyWlLk6GJQsqaUBKTNV-1" vertex="1">
          <mxGeometry x="362" y="850" width="120" height="40" as="geometry" />
        </mxCell>
        <mxCell id="qnX8hXvUprhNILmY2zkn-41" value="Is there &lt;br&gt;&lt;b&gt;menu &lt;/b&gt;button" style="rhombus;whiteSpace=wrap;html=1;shadow=0;fontFamily=Helvetica;fontSize=12;align=center;strokeWidth=1;spacing=6;spacingTop=-4;" parent="WIyWlLk6GJQsqaUBKTNV-1" vertex="1">
          <mxGeometry x="367" y="935" width="110" height="90" as="geometry" />
        </mxCell>
        <mxCell id="qnX8hXvUprhNILmY2zkn-42" value="&lt;div&gt;&lt;div&gt;error=VM should menu should not be visible during build&lt;/div&gt;&lt;/div&gt;&lt;div&gt;&lt;br&gt;&lt;/div&gt;" style="rounded=1;whiteSpace=wrap;html=1;fontSize=12;glass=0;strokeWidth=1;shadow=0;" parent="WIyWlLk6GJQsqaUBKTNV-1" vertex="1">
          <mxGeometry x="521" y="940" width="190" height="80" as="geometry" />
        </mxCell>
        <mxCell id="qnX8hXvUprhNILmY2zkn-44" value="Test Passed" style="rounded=1;whiteSpace=wrap;html=1;fontSize=12;glass=0;strokeWidth=1;shadow=0;" parent="WIyWlLk6GJQsqaUBKTNV-1" vertex="1">
          <mxGeometry x="362" y="1060" width="120" height="40" as="geometry" />
        </mxCell>
        <mxCell id="qnX8hXvUprhNILmY2zkn-46" value="" style="endArrow=classic;html=1;rounded=0;exitX=1;exitY=0.5;exitDx=0;exitDy=0;" parent="WIyWlLk6GJQsqaUBKTNV-1" source="qnX8hXvUprhNILmY2zkn-41" target="qnX8hXvUprhNILmY2zkn-42" edge="1">
          <mxGeometry width="50" height="50" relative="1" as="geometry">
            <mxPoint x="592" y="1220" as="sourcePoint" />
            <mxPoint x="642" y="1170" as="targetPoint" />
          </mxGeometry>
        </mxCell>
        <mxCell id="qnX8hXvUprhNILmY2zkn-47" value="" style="endArrow=classic;html=1;rounded=0;exitX=0.5;exitY=1;exitDx=0;exitDy=0;entryX=0.5;entryY=0;entryDx=0;entryDy=0;" parent="WIyWlLk6GJQsqaUBKTNV-1" source="qnX8hXvUprhNILmY2zkn-41" target="qnX8hXvUprhNILmY2zkn-44" edge="1">
          <mxGeometry width="50" height="50" relative="1" as="geometry">
            <mxPoint x="592" y="1220" as="sourcePoint" />
            <mxPoint x="422" y="1050" as="targetPoint" />
          </mxGeometry>
        </mxCell>
        <mxCell id="qnX8hXvUprhNILmY2zkn-52" value="True" style="text;html=1;strokeColor=none;fillColor=none;align=center;verticalAlign=middle;whiteSpace=wrap;rounded=0;" parent="WIyWlLk6GJQsqaUBKTNV-1" vertex="1">
          <mxGeometry x="462" y="950" width="60" height="30" as="geometry" />
        </mxCell>
        <mxCell id="qnX8hXvUprhNILmY2zkn-53" value="False" style="text;html=1;strokeColor=none;fillColor=none;align=center;verticalAlign=middle;whiteSpace=wrap;rounded=0;" parent="WIyWlLk6GJQsqaUBKTNV-1" vertex="1">
          <mxGeometry x="412" y="1020" width="60" height="30" as="geometry" />
        </mxCell>
        <mxCell id="qnX8hXvUprhNILmY2zkn-57" value="Verify button based on ID &lt;br&gt;by&lt;br&gt;lastest VM created" style="ellipse;shape=cloud;whiteSpace=wrap;html=1;" parent="WIyWlLk6GJQsqaUBKTNV-1" vertex="1">
          <mxGeometry x="131" y="800" width="181" height="110" as="geometry" />
        </mxCell>
        <mxCell id="qnX8hXvUprhNILmY2zkn-58" value="" style="endArrow=classic;html=1;rounded=0;exitX=0.967;exitY=0.764;exitDx=0;exitDy=0;exitPerimeter=0;" parent="WIyWlLk6GJQsqaUBKTNV-1" source="qnX8hXvUprhNILmY2zkn-57" target="qnX8hXvUprhNILmY2zkn-41" edge="1">
          <mxGeometry width="50" height="50" relative="1" as="geometry">
            <mxPoint x="492" y="750" as="sourcePoint" />
            <mxPoint x="542" y="700" as="targetPoint" />
          </mxGeometry>
        </mxCell>
        <mxCell id="qnX8hXvUprhNILmY2zkn-59" value="&lt;h1&gt;&lt;span style=&quot;white-space: pre&quot;&gt;	&lt;/span&gt;&lt;span style=&quot;white-space: pre&quot;&gt;	&lt;/span&gt;&lt;span style=&quot;white-space: pre&quot;&gt;	&lt;/span&gt;&lt;span style=&quot;white-space: pre&quot;&gt;	&lt;/span&gt;&lt;span style=&quot;white-space: pre&quot;&gt;	&lt;/span&gt;&lt;span style=&quot;white-space: pre&quot;&gt;	&lt;/span&gt;4 MyVMs&lt;/h1&gt;&lt;p&gt;Tests if everything on the page My VMs works as expected. Since it contains deletion of VMs, it should be run last after creating VMs was tested.&lt;/p&gt;" style="text;html=1;strokeColor=none;fillColor=none;spacing=5;spacingTop=-20;whiteSpace=wrap;overflow=hidden;rounded=0;" parent="WIyWlLk6GJQsqaUBKTNV-1" vertex="1">
          <mxGeometry x="47" y="10" width="750" height="120" as="geometry" />
        </mxCell>
        <mxCell id="qnX8hXvUprhNILmY2zkn-61" value="" style="rounded=0;whiteSpace=wrap;html=1;fillColor=none;strokeColor=#00B336;strokeWidth=2;" parent="WIyWlLk6GJQsqaUBKTNV-1" vertex="1">
          <mxGeometry x="14" y="110" width="410" height="470" as="geometry" />
        </mxCell>
        <mxCell id="qnX8hXvUprhNILmY2zkn-62" value="" style="rounded=0;whiteSpace=wrap;html=1;fillColor=none;strokeColor=#00B336;strokeWidth=2;" parent="WIyWlLk6GJQsqaUBKTNV-1" vertex="1">
          <mxGeometry x="434" y="110" width="380" height="610" as="geometry" />
        </mxCell>
        <mxCell id="qnX8hXvUprhNILmY2zkn-63" value="" style="rounded=0;whiteSpace=wrap;html=1;fillColor=none;strokeColor=#00B336;strokeWidth=2;" parent="WIyWlLk6GJQsqaUBKTNV-1" vertex="1">
          <mxGeometry x="127" y="740" width="610" height="380" as="geometry" />
        </mxCell>
        <mxCell id="qnX8hXvUprhNILmY2zkn-65" value="&lt;h1&gt;Prolong_random&lt;/h1&gt;&lt;p&gt;Checks if clicking the prolong button is enabled, after check tests if it prolongs the VM&lt;/p&gt;" style="text;html=1;strokeColor=none;fillColor=none;spacing=5;spacingTop=-20;whiteSpace=wrap;overflow=hidden;rounded=0;" parent="WIyWlLk6GJQsqaUBKTNV-1" vertex="1">
          <mxGeometry x="216" y="140" width="208" height="100" as="geometry" />
        </mxCell>
        <mxCell id="qnX8hXvUprhNILmY2zkn-70" value="Desc." style="shape=umlFrame;whiteSpace=wrap;html=1;fontColor=#171717;" parent="WIyWlLk6GJQsqaUBKTNV-1" vertex="1">
          <mxGeometry x="204" y="110" width="220" height="130" as="geometry" />
        </mxCell>
        <mxCell id="Is9813-oMrDOsY-Z2tJ6-0" value="Desc." style="shape=umlFrame;whiteSpace=wrap;html=1;fontColor=#171717;" parent="WIyWlLk6GJQsqaUBKTNV-1" vertex="1">
          <mxGeometry x="604" y="110" width="210" height="130" as="geometry" />
        </mxCell>
        <mxCell id="Is9813-oMrDOsY-Z2tJ6-1" value="&lt;h1&gt;Cards check&lt;/h1&gt;&lt;p&gt;Checks if number of VM and VM cards in MyVMs are equal&lt;/p&gt;" style="text;html=1;strokeColor=none;fillColor=none;spacing=5;spacingTop=-20;whiteSpace=wrap;overflow=hidden;rounded=0;" parent="WIyWlLk6GJQsqaUBKTNV-1" vertex="1">
          <mxGeometry x="622" y="140" width="190" height="120" as="geometry" />
        </mxCell>
        <mxCell id="Is9813-oMrDOsY-Z2tJ6-2" value="&lt;h1&gt;DelBuildValidation&lt;/h1&gt;&lt;p&gt;Checks if delete VM is avalibe during build&lt;/p&gt;" style="text;html=1;strokeColor=none;fillColor=none;spacing=5;spacingTop=-20;whiteSpace=wrap;overflow=hidden;rounded=0;" parent="WIyWlLk6GJQsqaUBKTNV-1" vertex="1">
          <mxGeometry x="509" y="780" width="230" height="120" as="geometry" />
        </mxCell>
        <mxCell id="Is9813-oMrDOsY-Z2tJ6-3" value="Desc." style="shape=umlFrame;whiteSpace=wrap;html=1;fontColor=#171717;" parent="WIyWlLk6GJQsqaUBKTNV-1" vertex="1">
          <mxGeometry x="504" y="740" width="233" height="130" as="geometry" />
        </mxCell>
      </root>
    </mxGraphModel>
  </diagram>
</mxfile>
